<svg width="383" height="114" viewBox="0 0 383 114" fill="none" xmlns="http://www.w3.org/2000/svg">
<g clip-path="url(#clip0_4_135)">
<path d="M101.448 63.9581C94.57 91.5476 66.6248 108.337 39.032 101.458C11.4522 94.5797 -5.33842 66.6345 1.54166 39.0466C8.41691 11.4539 36.3605 -5.33834 63.9452 1.54013C91.5363 8.4186 108.327 36.367 101.448 63.9581Z" fill="#3808BF"/>
<path d="M74.2018 44.1629C75.2254 37.3101 70.0078 33.6263 62.8734 31.1688L65.1877 21.8859L59.5356 20.4777L57.2825 29.5159C55.7986 29.1458 54.2729 28.7965 52.7569 28.4505L55.0261 19.3527L49.3788 17.9445L47.0629 27.2242C45.8334 26.9442 44.6263 26.6673 43.4547 26.376L43.4612 26.3471L35.6686 24.4013L34.1654 30.4365C34.1654 30.4365 38.3578 31.3973 38.2693 31.4568C40.5579 32.0282 40.9731 33.5426 40.9023 34.7432L38.2661 45.3184C38.4238 45.3586 38.6282 45.4166 38.8535 45.5067L38.2581 45.3586L34.5613 60.1729C34.2813 60.8682 33.5716 61.911 31.9718 61.5151C32.0282 61.5972 27.8647 60.49 27.8647 60.49L25.0596 66.9597L32.4144 68.7927C33.7824 69.1355 35.123 69.4944 36.4411 69.8324L34.1026 79.2231L39.7467 80.6313L42.0642 71.342C43.6044 71.7604 45.1011 72.1467 46.5656 72.5104L44.2578 81.7563L49.9083 83.1645L52.2467 73.7931C61.8821 75.6165 69.1291 74.881 72.1756 66.1678C74.6331 59.151 72.0549 55.1034 66.9854 52.4624C70.6773 51.6078 73.4599 49.1793 74.2018 44.1629ZM61.2898 62.2667C59.542 69.2836 47.7292 65.4919 43.8973 64.5392L47.0002 52.1003C50.8305 53.0563 63.11 54.9489 61.2898 62.2667ZM63.036 44.0615C61.4427 50.4443 51.6094 47.2014 48.418 46.4063L51.2312 35.1246C54.4226 35.9196 64.6969 37.4035 63.036 44.0615Z" fill="#F8F8FB"/>
</g>
<path d="M148.056 58.048C150.915 58.5173 152.813 59.52 153.752 61.056C154.733 62.5493 155.224 64.32 155.224 66.368C155.224 66.7947 155.203 67.1147 155.16 67.328C154.349 72.5333 152.173 76.2453 148.632 78.464C145.091 80.64 140.909 81.728 136.088 81.728C134.851 81.728 133.507 81.5787 132.056 81.28C130.648 81.024 129.496 80.64 128.6 80.128C127.96 80.5973 126.765 80.832 125.016 80.832C123.864 80.832 123.053 80.384 122.584 79.488C122.115 78.5493 121.88 77.4187 121.88 76.096C121.88 75.6267 121.944 75.1787 122.072 74.752L129.24 46.08C126.211 47.104 124.333 48.1707 123.608 49.28C122.285 47.872 121.624 46.5707 121.624 45.376C121.624 44.4373 121.987 43.4773 122.712 42.496C124.419 41.3867 127.192 40.3413 131.032 39.36C131.373 38.464 131.8 37.8453 132.312 37.504C132.867 37.1627 133.677 36.992 134.744 36.992C135.64 36.992 136.472 37.0773 137.24 37.248C138.051 37.4187 138.627 37.6747 138.968 38.016C141.016 37.76 143.085 37.632 145.176 37.632C149.528 37.632 152.728 38.5067 154.776 40.256C156.824 41.9627 157.848 44.352 157.848 47.424C157.848 50.0267 156.931 52.2667 155.096 54.144C153.261 55.9787 150.915 57.28 148.056 58.048ZM135.064 56.384C144.408 55.616 149.08 52.8853 149.08 48.192C149.08 46.8693 148.675 45.8453 147.864 45.12C147.053 44.352 145.667 43.968 143.704 43.968C141.955 43.968 140.013 44.0747 137.88 44.288L135.064 56.384ZM135.256 75.52C137.176 75.52 139.032 75.1787 140.824 74.496C142.659 73.7707 144.152 72.768 145.304 71.488C146.456 70.1653 147.032 68.6293 147.032 66.88C147.032 65.4293 146.52 64.192 145.496 63.168C144.515 62.1013 143.128 61.568 141.336 61.568C137.965 61.568 135.533 61.696 134.04 61.952C133.357 64.256 132.227 68.5227 130.648 74.752C132.013 75.264 133.549 75.52 135.256 75.52ZM168.015 41.984C168.015 40.6613 168.42 39.488 169.231 38.464C170.084 37.44 171.258 36.928 172.751 36.928C174.33 36.928 175.695 37.4187 176.847 38.4C178.042 39.3813 178.639 40.4907 178.639 41.728C178.639 42.9653 178.042 44.032 176.847 44.928C175.652 45.824 174.266 46.272 172.687 46.272C171.151 46.272 169.978 45.888 169.167 45.12C168.399 44.3093 168.015 43.264 168.015 41.984ZM174.735 53.312C172.474 62.528 170.746 69.4613 169.551 74.112C169.38 74.7947 169.295 75.5413 169.295 76.352L169.359 78.144C169.359 78.8693 169.124 79.3813 168.655 79.68C168.228 79.9787 167.29 80.1493 165.839 80.192C164.431 80.192 163.364 80.0427 162.639 79.744C161.914 79.4453 161.551 78.8053 161.551 77.824C161.551 77.3547 162.084 74.8587 163.151 70.336C164.26 65.8133 165.754 59.9253 167.631 52.672L166.159 50.752C166.031 50.624 165.967 50.4747 165.967 50.304C165.967 49.8773 166.436 49.536 167.375 49.28C168.314 48.9813 169.615 48.832 171.279 48.832C172.73 48.832 173.647 49.2587 174.031 50.112C174.458 50.9227 174.692 51.9893 174.735 53.312ZM187.751 72.96C187.751 73.9413 188.007 74.7307 188.519 75.328C189.031 75.8827 189.756 76.16 190.695 76.16C191.975 76.16 193.02 75.7973 193.831 75.072C194.684 74.304 195.58 73.2373 196.519 71.872C197.201 70.8907 197.756 70.1867 198.183 69.76C198.609 69.3333 199.1 69.12 199.655 69.12C200.764 69.12 201.553 69.2693 202.023 69.568C202.492 69.824 202.727 70.3787 202.727 71.232C202.727 71.616 202.684 72.0853 202.599 72.64C202.513 73.152 202.407 73.536 202.279 73.792C201.255 75.968 199.569 77.8453 197.223 79.424C194.919 81.0027 192.295 81.792 189.351 81.792C186.407 81.792 184.188 81.088 182.695 79.68C181.201 78.2293 180.455 76.1813 180.455 73.536C180.455 73.152 180.647 72.1493 181.031 70.528C181.415 68.9067 181.905 66.9653 182.503 64.704L184.295 57.408L180.391 57.728C179.879 57.728 179.495 57.536 179.239 57.152C178.983 56.768 178.855 56.2987 178.855 55.744C178.855 54.6773 179.239 53.6107 180.007 52.544C180.092 52.416 180.519 52.288 181.286 52.16C182.055 52.032 182.993 51.904 184.103 51.776L185.831 51.584L188.007 42.24C188.433 41.1307 189.073 40.2773 189.927 39.68C190.823 39.04 191.655 38.72 192.423 38.72C193.276 38.72 194.001 38.976 194.599 39.488C195.196 40 195.516 40.5973 195.559 41.28L193.255 50.88C194.919 50.6667 196.455 50.496 197.863 50.368C199.313 50.1973 200.444 50.112 201.255 50.112C202.876 50.112 203.687 51.0507 203.687 52.928C203.687 53.6533 203.367 54.3147 202.727 54.912C202.129 55.4667 201.468 55.808 200.743 55.936L191.783 56.832L187.751 72.96ZM213.384 77.184C213.341 77.44 212.765 79.7653 211.656 84.16C210.589 88.5973 209.843 91.392 209.416 92.544C209.245 93.0133 208.733 93.3547 207.88 93.568C207.027 93.824 206.408 93.952 206.024 93.952C204.104 93.952 203.08 92.7787 202.952 90.432C203.763 85.568 205.128 79.0187 207.048 70.784C208.968 62.5067 210.632 55.744 212.04 50.496C212.125 49.856 212.509 49.2373 213.192 48.64C213.917 48 214.557 47.68 215.112 47.68C216.093 47.68 216.904 47.9787 217.544 48.576C218.227 49.1307 218.632 49.9413 218.76 51.008C220.467 49.856 222.429 49.28 224.648 49.28C227.037 49.28 229.213 49.8133 231.176 50.88C233.139 51.904 234.675 53.3973 235.784 55.36C236.936 57.3227 237.512 59.6053 237.512 62.208C237.512 65.408 236.893 68.4373 235.656 71.296C234.419 74.1547 232.563 76.48 230.088 78.272C227.613 80.064 224.627 80.96 221.128 80.96C220.019 80.96 218.589 80.5973 216.84 79.872C215.091 79.104 213.939 78.208 213.384 77.184ZM215.368 69.056C215.283 69.568 215.24 69.9307 215.24 70.144C215.283 71.2107 215.624 72.1493 216.264 72.96C216.947 73.7707 217.736 74.4107 218.632 74.88C219.528 75.3067 220.275 75.52 220.872 75.52C222.749 75.52 224.392 74.8587 225.8 73.536C227.251 72.2133 228.36 70.5493 229.128 68.544C229.896 66.5387 230.28 64.576 230.28 62.656C230.28 60.1387 229.64 58.24 228.36 56.96C227.08 55.6373 225.501 54.976 223.624 54.976C222.643 54.976 221.661 55.168 220.68 55.552C219.741 55.936 218.909 56.512 218.184 57.28L215.368 69.056ZM248.22 77.568C248.178 77.8667 248.093 78.3787 247.965 79.104C247.879 79.8293 247.559 80.3413 247.005 80.64C246.493 80.9387 245.618 81.088 244.381 81.088C242.973 81.088 241.927 80.9387 241.245 80.64C240.562 80.3413 240.199 79.7013 240.157 78.72C240.498 77.0133 241.053 73.984 241.821 69.632C242.077 68.1813 242.482 66.0053 243.036 63.104C243.591 60.16 244.018 58.0267 244.317 56.704C244.743 53.6747 245.341 51.6907 246.109 50.752C246.877 49.7707 247.815 49.28 248.925 49.28C250.418 49.28 251.399 49.4933 251.869 49.92C252.381 50.3467 252.658 50.9013 252.701 51.584L252.189 55.36C253.469 53.696 254.983 52.3307 256.733 51.264C258.482 50.1547 260.061 49.6 261.469 49.6C263.346 49.6 264.818 49.9413 265.885 50.624C266.951 51.264 267.485 52.096 267.485 53.12C267.485 53.888 267.015 54.4853 266.077 54.912C265.181 55.3387 263.986 55.616 262.493 55.744C260.146 55.9573 257.821 56.96 255.517 58.752C253.213 60.544 251.549 62.656 250.525 65.088L248.22 77.568ZM278.631 80.64C274.876 80.64 271.953 79.36 269.863 76.8C267.772 74.24 266.727 70.976 266.727 67.008C266.727 63.68 267.431 60.6293 268.839 57.856C270.289 55.0827 272.295 52.9067 274.855 51.328C277.457 49.7067 280.423 48.896 283.751 48.896C287.463 48.896 289.959 49.216 291.239 49.856C291.623 50.0267 291.964 50.304 292.263 50.688C292.561 51.0293 292.711 51.3707 292.711 51.712C292.711 52.1387 292.604 52.5867 292.391 53.056C292.22 53.5253 291.943 53.888 291.559 54.144C292.54 54.2293 293.372 54.72 294.055 55.616C294.737 56.4693 295.249 57.472 295.591 58.624C295.932 59.776 296.103 60.7787 296.103 61.632C296.103 64.6613 295.356 67.648 293.863 70.592C292.412 73.536 290.364 75.9467 287.719 77.824C285.073 79.7013 282.044 80.64 278.631 80.64ZM279.591 75.328C280.956 75.328 282.343 74.6667 283.751 73.344C285.201 71.9787 286.396 70.1867 287.335 67.968C288.273 65.7493 288.743 63.424 288.743 60.992C288.743 60.5227 288.572 60.096 288.231 59.712C287.932 59.328 287.505 58.9227 286.951 58.496C286.652 58.2827 286.375 58.0693 286.119 57.856C285.905 57.6 285.799 57.3653 285.799 57.152C285.799 56.9813 285.841 56.7467 285.927 56.448C286.055 56.1493 286.119 55.936 286.119 55.808C286.119 55.168 285.329 54.848 283.751 54.848C282.001 54.848 280.38 55.552 278.887 56.96C277.436 58.368 276.284 60.16 275.431 62.336C274.62 64.512 274.215 66.6453 274.215 68.736C274.215 69.9733 274.492 71.104 275.047 72.128C275.601 73.1093 276.284 73.8987 277.095 74.496C277.948 75.0507 278.78 75.328 279.591 75.328ZM309.019 82.176C308.677 82.8587 308.123 83.456 307.355 83.968C306.629 84.48 305.84 84.736 304.987 84.736C304.219 84.736 303.429 84.4373 302.619 83.84C301.851 83.2853 301.467 82.5387 301.467 81.6V81.216L306.907 59.008L300.955 59.52C299.632 59.52 298.971 58.8587 298.971 57.536C298.971 56.4693 299.355 55.4027 300.123 54.336C300.251 54.1653 303.045 53.7813 308.507 53.184L309.659 47.872C310.683 43.4347 312.304 40.0853 314.523 37.824C316.784 35.52 319.963 34.368 324.059 34.368C326.021 34.368 327.728 34.7947 329.179 35.648C330.629 36.5013 331.717 37.5893 332.443 38.912C333.168 40.2347 333.531 41.5787 333.531 42.944C333.531 44.0107 333.275 44.864 332.763 45.504C332.293 46.144 331.291 46.464 329.755 46.464C329.2 46.464 328.795 46.2933 328.539 45.952C328.325 45.6107 328.091 45.0347 327.835 44.224C327.536 43.1573 327.131 42.3253 326.619 41.728C326.107 41.1307 325.211 40.832 323.931 40.832C322.48 40.832 321.243 41.2373 320.219 42.048C319.237 42.816 318.597 43.7547 318.299 44.864L316.315 52.416L320.219 52.032C321.925 51.8613 322.843 51.776 322.971 51.776C324.592 51.776 325.403 52.7147 325.403 54.592C325.403 55.3173 325.083 55.9787 324.443 56.576C323.845 57.1307 323.184 57.472 322.459 57.6L314.843 58.368L309.019 82.176ZM335.899 41.984C335.899 40.6613 336.304 39.488 337.115 38.464C337.968 37.44 339.141 36.928 340.635 36.928C342.213 36.928 343.579 37.4187 344.731 38.4C345.925 39.3813 346.523 40.4907 346.523 41.728C346.523 42.9653 345.925 44.032 344.731 44.928C343.536 45.824 342.149 46.272 340.571 46.272C339.035 46.272 337.861 45.888 337.051 45.12C336.283 44.3093 335.899 43.264 335.899 41.984ZM342.619 53.312C340.357 62.528 338.629 69.4613 337.435 74.112C337.264 74.7947 337.179 75.5413 337.179 76.352L337.243 78.144C337.243 78.8693 337.008 79.3813 336.539 79.68C336.112 79.9787 335.173 80.1493 333.722 80.192C332.315 80.192 331.248 80.0427 330.523 79.744C329.797 79.4453 329.435 78.8053 329.435 77.824C329.435 77.3547 329.968 74.8587 331.035 70.336C332.144 65.8133 333.637 59.9253 335.515 52.672L334.043 50.752C333.915 50.624 333.851 50.4747 333.851 50.304C333.851 49.8773 334.32 49.536 335.259 49.28C336.197 48.9813 337.499 48.832 339.163 48.832C340.613 48.832 341.531 49.2587 341.915 50.112C342.341 50.9227 342.576 51.9893 342.619 53.312ZM355.626 72.96C355.626 73.9413 355.882 74.7307 356.394 75.328C356.906 75.8827 357.631 76.16 358.57 76.16C359.85 76.16 360.895 75.7973 361.706 75.072C362.559 74.304 363.455 73.2373 364.394 71.872C365.076 70.8907 365.631 70.1867 366.058 69.76C366.484 69.3333 366.975 69.12 367.53 69.12C368.639 69.12 369.428 69.2693 369.898 69.568C370.367 69.824 370.602 70.3787 370.602 71.232C370.602 71.616 370.559 72.0853 370.474 72.64C370.388 73.152 370.282 73.536 370.154 73.792C369.13 75.968 367.444 77.8453 365.098 79.424C362.794 81.0027 360.17 81.792 357.226 81.792C354.282 81.792 352.063 81.088 350.57 79.68C349.076 78.2293 348.33 76.1813 348.33 73.536C348.33 73.152 348.522 72.1493 348.906 70.528C349.29 68.9067 349.78 66.9653 350.378 64.704L352.17 57.408L348.266 57.728C347.754 57.728 347.37 57.536 347.114 57.152C346.858 56.768 346.73 56.2987 346.73 55.744C346.73 54.6773 347.114 53.6107 347.882 52.544C347.967 52.416 348.394 52.288 349.161 52.16C349.93 52.032 350.868 51.904 351.978 51.776L353.706 51.584L355.882 42.24C356.308 41.1307 356.948 40.2773 357.802 39.68C358.698 39.04 359.53 38.72 360.298 38.72C361.151 38.72 361.876 38.976 362.474 39.488C363.071 40 363.391 40.5973 363.434 41.28L361.13 50.88C362.794 50.6667 364.33 50.496 365.738 50.368C367.188 50.1973 368.319 50.112 369.13 50.112C370.751 50.112 371.562 51.0507 371.562 52.928C371.562 53.6533 371.242 54.3147 370.602 54.912C370.004 55.4667 369.343 55.808 368.618 55.936L359.658 56.832L355.626 72.96Z" fill="#E1E1EB"/>
<defs>
<clipPath id="clip0_4_135">
<rect width="103" height="103" fill="white"/>
</clipPath>
</defs>
</svg>
